<svg width="100%" height="100%" viewBox="0 0 400 400" xmlns="http://www.w3.org/2000/svg">
  <rect width="100%" height="100%" fill="#f3f4f6"/>
  <g transform="translate(150,150)">
    <g id="line">
      <path
        d="m36,32.51c4.335,-4.336 8.841,-9.096 15.73,-9.096c7.226,0 12.24,5.271 12.24,12.58c-0.05592,7.058 -5.863,12.71 -12.92,12.58c-5.006,0 -8.99,-3.178 -12.47,-6.532m-2.581,-2.564c-4.335,4.335 -8.841,9.096 -15.73,9.096c-7.141,0 -12.24,-5.271 -12.24,-12.58c0.05558,-7.058 5.863,-12.71 12.92,-12.58c5.02,0 9.012,3.194 12.49,6.558m-3.476,3.475c-2.586,-2.503 -5.447,-4.932 -9.102,-4.932c-4.129,0.0055 -7.474,3.351 -7.48,7.48c-0.2047,4.113 3.108,7.542 7.226,7.48c4.844,0.0005 8.754,-4.166 11.98,-7.48m9.401,2.521c2.594,2.513 5.462,4.959 9.129,4.959c4.129,-0.0052 7.476,-3.351 7.482,-7.48l0.0004,0c0.2047,-4.113 -3.108,-7.542 -7.226,-7.48c-4.846,0 -8.756,4.165 -11.99,7.48"
        strokeWidth="2"
        strokeLinecap="round"
        fill="none"
        stroke="#9ca3af"
      />
      <line
        fill="none"
        strokeWidth="2"
        strokeLinejoin="round"
        strokeLinecap="round"
        y2="32.51"
        y1="36"
        x2="36"
        x1="32.6"
        stroke="#9ca3af"
      />
      <line
        fill="none"
        strokeWidth="2"
        strokeLinejoin="round"
        strokeLinecap="round"
        y2="36"
        y1="39.49"
        x2="39.4"
        x1="36"
        stroke="#9ca3af"
      />
    </g>
    <text
      x="36"
      y="90"
      text-anchor="middle"
      font-family="Arial"
      font-size="16"
      font-weight="bold"
      fill="#9ca3af"
    >
      페어링 BOOK
    </text>
  </g>
</svg> 